<svg xmlns="http://www.w3.org/2000/svg" width="32" height="32" viewBox="0 0 32 32">
  <rect width="32" height="32" rx="8" fill="#6366f1"/>
  <path d="M16 6a5 5 0 0 1 5 5v1a2.5 2.5 0 0 1 2.5 2.5v1A2.5 2.5 0 0 1 21 18H11a2.5 2.5 0 0 1-2.5-2.5v-1A2.5 2.5 0 0 1 11 12v-1a5 5 0 0 1 5-5z" fill="none" stroke="white" stroke-width="1.5"/>
  <line x1="12" y1="21" x2="20" y2="21" stroke="white" stroke-width="1.5" stroke-linecap="round"/>
  <line x1="13" y1="25" x2="19" y2="25" stroke="white" stroke-width="1.5" stroke-linecap="round"/>
  <line x1="16" y1="18" x2="16" y2="21" stroke="white" stroke-width="1.5"/>
</svg>
